<?xml version="1.0" encoding="UTF-8" standalone="no"?>
<svg width="175px" height="179px" viewBox="0 0 175 179" version="1.1" xmlns="http://www.w3.org/2000/svg" xmlns:xlink="http://www.w3.org/1999/xlink">
    <!-- Generator: Sketch 3.6.1 (26313) - http://www.bohemiancoding.com/sketch -->
    <title>Rectangle 2</title>
    <desc>Created with Sketch.</desc>
    <defs>
        <filter x="-50%" y="-50%" width="200%" height="200%" filterUnits="objectBoundingBox" id="filter-1">
            <feOffset dx="1" dy="1" in="SourceAlpha" result="shadowOffsetOuter1"></feOffset>
            <feGaussianBlur stdDeviation="0.5" in="shadowOffsetOuter1" result="shadowBlurOuter1"></feGaussianBlur>
            <feColorMatrix values="0 0 0 0 0   0 0 0 0 0   0 0 0 0 0  0 0 0 0.35 0" in="shadowBlurOuter1" type="matrix" result="shadowMatrixOuter1"></feColorMatrix>
            <feMerge>
                <feMergeNode in="shadowMatrixOuter1"></feMergeNode>
                <feMergeNode in="SourceGraphic"></feMergeNode>
            </feMerge>
        </filter>
    </defs>
    <g id="Page-1" stroke="none" stroke-width="1" fill="none" fill-rule="evenodd">
        <path d="M135.298763,106.36121 C153.904918,103.062687 168,87.3833063 168,68.5384615 C168,47.2967404 150.09139,30.0769231 128,30.0769231 C126.898692,30.0769231 125.807779,30.1197188 124.728962,30.203675 C118.586784,16.55213 104.453522,7 88,7 C71.5464777,7 57.4132156,16.55213 51.2710375,30.203675 C50.1922207,30.1197188 49.101308,30.0769231 48,30.0769231 C25.90861,30.0769231 8,47.2967404 8,68.5384615 C8,87.5691896 22.3745176,103.371698 41.253131,106.455196 C41.3855649,106.813117 41.5288962,107.161617 41.6835938,107.5 C48,121.316406 48,152 48,152 L128,152 C128,152 127.999999,126.65625 134.933594,107.5 C135.066959,107.131537 135.188506,106.751655 135.298763,106.36121 Z" id="Combined-Shape" stroke="#020202" stroke-width="5" fill="#FFFFFF"></path>
        <path d="M87.8398814,144.376663 C87.7185557,144.180521 87.5934163,143.984739 87.4644603,143.789353 C85.3273536,140.55135 74.2345068,135.249801 67.5262381,138.537139 C61.7126323,141.386053 59.3978529,144.656712 53.4261872,144.91839 C38.1933926,145.585891 28,122 28,122 C28,122 30.357123,148.65719 39.6941031,161.195622 C45.3710244,168.81904 55.9136226,174.086841 66.5459698,173.664053 C72.8739953,173.412423 80.0006244,171.431042 84.7345547,166.840746 C85.9544971,165.657819 86.9899612,164.420319 87.8398786,163.141335 C88.6897961,164.420319 89.7252602,165.657819 90.9452026,166.840746 C95.6791329,171.431042 102.805762,173.412423 109.133787,173.664053 C119.766135,174.086841 130.308733,168.81904 135.985654,161.195622 C145.322634,148.65719 147.679757,122 147.679757,122 C147.679757,122 137.486365,145.585891 122.25357,144.91839 C116.281904,144.656712 113.967125,141.386053 108.153519,138.537139 C101.44525,135.249801 90.3524036,140.55135 88.215297,143.789353 C88.0863419,143.984738 87.9612035,144.180518 87.8398786,144.376659 Z" id="Combined-Shape" fill="#000000" filter="url(#filter-1)"></path>
    </g>
</svg>